<svg xmlns="http://www.w3.org/2000/svg" viewBox="0 0 1200 600" width="1200" height="600" preserveAspectRatio="xMidYMid slice">
<defs>
<linearGradient id="s" x1="0" y1="0" x2="0" y2="1"><stop offset="0" stop-color="#8fbfd0"/><stop offset=".45" stop-color="#f6ecb8"/><stop offset=".6" stop-color="#f3df8b"/></linearGradient>
<radialGradient id="sun" cx=".5" cy=".5" r=".5"><stop offset="0" stop-color="#fffbe6"/><stop offset=".6" stop-color="#f7e27a"/><stop offset="1" stop-color="#f3d65a" stop-opacity="0"/></radialGradient>
</defs>
<rect width="1200" height="600" fill="url(#s)"/>
<circle cx="900" cy="250" r="140" fill="url(#sun)"/>
<path d="M0 300 Q150 230 320 270 T640 250 T940 235 T1200 260 V600 H0Z" fill="#e7cf5c"/>
<path d="M0 360 Q200 300 420 340 T820 320 T1200 340 V600 H0Z" fill="#a9bd8e"/>
<g>
<rect x="430" y="210" width="70" height="120" fill="#f1c93a"/><path d="M420 212 L465 165 L510 212Z" fill="#c8713f"/>
<rect x="500" y="245" width="150" height="90" fill="#f5d54f"/><path d="M488 247 L575 190 L662 247Z" fill="#c8713f"/>
<rect x="650" y="270" width="110" height="70" fill="#eebf2f"/><path d="M640 272 L705 228 L770 272Z" fill="#b9663a"/>
<g fill="#5f7650"><rect x="450" y="235" width="24" height="28"/><rect x="525" y="270" width="24" height="26"/><rect x="590" y="270" width="24" height="26"/><rect x="555" y="300" width="34" height="35"/><rect x="690" y="290" width="26" height="22"/></g>
</g>
<path d="M0 420 Q260 370 540 410 T1200 400 V600 H0Z" fill="#6f8a5e"/>
<path d="M0 500 Q300 460 640 495 T1200 485 V600 H0Z" fill="#f3df8b"/>
<g fill="#3e5034"><path d="M180 420 q14 -150 28 0z"/><path d="M215 425 q12 -120 24 0z"/><path d="M960 400 q14 -160 28 0z"/><path d="M1000 406 q12 -120 24 0z"/><path d="M380 330 q10 -110 20 0z"/></g>
<g stroke="#fffdf4" stroke-width="3" opacity=".7" fill="none"><path d="M0 540 Q300 510 640 540 T1200 530"/><path d="M0 565 Q300 535 640 565 T1200 555"/></g>
</svg>
